<?xml version="1.0" encoding="iso-8859-1"?>
<!-- Generator: Adobe Illustrator 23.1.0, SVG Export Plug-In . SVG Version: 6.00 Build 0)  -->
<svg version="1.1" id="Capa_1" xmlns="http://www.w3.org/2000/svg" xmlns:xlink="http://www.w3.org/1999/xlink" x="0px" y="0px"
	 viewBox="-49 141 1841.16 428.52" style="enable-background:new -49 141 1841.16 428.52;" xml:space="preserve">
<g>
	<g>
		<path d="M401,365h-64v48h64V365z M385,397h-32v-16h32V397z"/>
		<path d="M401,429h-64v48h64V429z M385,461h-32v-16h32V461z"/>
		<path d="M321,333V157H97v176H-15v214h448V333H321z M97,531H1V349h96V531z M161,531V422.8h40V531H161z M217,531V422.8h40V531H217z
			 M305,531h-32V406.8H145V531h-32V173h192V531z M417,531h-96V349h96V531z"/>
		<path d="M81,365H17v48h64V365z M65,397H33v-16h32V397z"/>
		<path d="M81,429H17v48h64V429z M65,461H33v-16h32V461z"/>
		<g>
			<polygon points="153.621,284.483 201.84,310.329 201.84,291.174 169.563,276.945 169.563,276.526 201.84,262.018 201.84,242.863 
				153.621,268.638 			"/>
			<polygon points="215.6,242.863 215.6,261.807 248.381,276.248 248.381,276.666 215.6,291.315 215.6,310.329 264.379,284.483 
				264.379,268.638 			"/>
			<path d="M209,198.231c-43.21,0-78.364,35.154-78.364,78.364S165.79,354.96,209,354.96c43.211,0,78.364-35.154,78.364-78.364
				S252.211,198.231,209,198.231z M209,341.292c-35.673,0-64.696-29.023-64.696-64.696S173.327,211.9,209,211.9
				s64.696,29.023,64.696,64.696S244.673,341.292,209,341.292z"/>
		</g>
	</g>
	<g>
		<g>
			<path d="M600.13,291.54c7.847-4.503,14.109-10.401,18.745-17.733c4.985-7.888,7.479-16.595,7.479-26.123
				c0-10.196-2.475-18.979-7.424-26.347c-4.95-7.368-12.039-13.061-21.267-17.08c-9.229-4.019-20.169-6.029-32.821-6.029H486.36
				v21.435l17.08,3.46v113.09l-17.08,3.461v21.211h70.109v-21.211l-17.08-3.461v-36.84l28.093,0.108l22.591,61.404h43.539v-21.211
				l-14.625-3.461L600.13,291.54z M539.389,271.686v-45.883h25.453c8.409,0,14.809,2.177,19.202,6.531
				c4.39,4.354,6.586,10.178,6.586,17.472c0,7.145-2.196,12.579-6.586,16.299c-4.393,3.722-10.83,5.582-19.314,5.582H539.389z"/>
			<path d="M735.146,245.675c-8.597-5.209-18.998-7.815-31.203-7.815c-12.132,0-22.515,2.624-31.147,7.87
				c-8.635,5.247-15.258,12.486-19.872,21.714c-4.615,9.229-6.922,19.871-6.922,31.928v2.233c0,12.207,2.307,22.942,6.922,32.208
				c4.614,9.266,11.256,16.486,19.928,21.658c8.669,5.173,19.108,7.759,31.314,7.759c12.057,0,22.383-2.604,30.98-7.815
				c8.596-5.208,15.2-12.448,19.816-21.713c4.614-9.266,6.921-19.964,6.921-32.096v-2.233c0-12.13-2.307-22.811-6.921-32.04
				C750.345,258.104,743.741,250.885,735.146,245.675z M726.158,301.605c0,6.922-0.764,12.95-2.288,18.086
				c-1.527,5.135-3.89,9.118-7.09,11.945c-3.201,2.829-7.406,4.242-12.615,4.242c-5.358,0-9.656-1.395-12.894-4.186
				c-3.237-2.791-5.601-6.754-7.089-11.889c-1.489-5.135-2.233-11.2-2.233-18.197v-2.233c0-6.772,0.744-12.708,2.233-17.807
				c1.488-5.096,3.852-9.079,7.089-11.945c3.238-2.864,7.461-4.298,12.671-4.298c5.284,0,9.546,1.434,12.782,4.298
				c3.238,2.866,5.618,6.849,7.146,11.945c1.524,5.099,2.288,11.035,2.288,17.807V301.605z"/>
			<polygon points="822.279,186.73 769.139,186.73 769.139,208.052 786.331,211.513 786.331,336.213 771.26,339.674 771.26,360.885 
				837.126,360.885 837.126,339.674 822.279,336.213 			"/>
			<polygon points="895.179,186.73 842.039,186.73 842.039,208.052 859.231,211.513 859.231,336.213 844.16,339.674 844.16,360.885 
				910.026,360.885 910.026,339.674 895.179,336.213 			"/>
			<rect x="931.907" y="186.73" width="37.063" height="29.137"/>
			<polygon points="968.858,240.092 915.942,240.092 915.942,261.415 933.023,264.876 933.023,336.213 918.063,339.674 
				918.063,360.885 983.819,360.885 983.819,339.674 968.858,336.213 			"/>
			<path d="M1113.99,285.641c0-16.523-3.332-28.616-9.992-36.283c-6.661-7.665-15.835-11.498-27.519-11.498
				c-7.443,0-14.122,1.693-20.038,5.079c-5.917,3.388-10.885,8.132-14.905,14.234l-1.339-17.08h-50.795v21.323l17.08,3.461v71.336
				l-14.849,3.461v21.211h62.294v-21.211l-11.609-3.461v-61.066c2.157-3.126,4.761-5.507,7.815-7.145
				c3.051-1.637,6.66-2.456,10.829-2.456c5.506,0,9.73,1.526,12.67,4.577c2.94,3.053,4.41,8.225,4.41,15.518v50.572l-12.727,3.461
				v21.211h63.522v-21.211l-14.847-3.461V285.641z"/>
			<path d="M1227.861,240.092h-11.276l-2.344,15.183c-3.572-5.507-7.89-9.786-12.95-12.839c-5.063-3.051-11.164-4.577-18.309-4.577
				c-9.528,0-17.733,2.643-24.617,7.926c-6.885,5.285-12.168,12.654-15.852,22.104c-3.684,9.453-5.527,20.505-5.527,33.156v2.344
				c0,11.984,1.86,22.478,5.583,31.482c3.72,9.006,9.098,15.984,16.132,20.933c7.033,4.95,15.462,7.424,25.286,7.424
				c6.028,0,11.349-1.173,15.964-3.516c4.614-2.344,8.669-5.674,12.169-9.992v6.81c0,8.111-1.974,14.494-5.917,19.146
				c-3.945,4.651-10.086,6.977-18.42,6.977c-4.988,0-10.438-0.633-16.356-1.898c-5.916-1.266-11.63-3.052-17.136-5.358l-6.14,25.118
				c5.953,2.976,12.856,5.247,20.709,6.81c7.852,1.563,14.903,2.344,21.155,2.344c11.982,0,22.308-2.196,30.98-6.586
				c8.669-4.393,15.35-10.55,20.038-18.476c4.689-7.927,7.034-17.211,7.034-27.854v-92.361l13.955-2.978v-21.323h-13.955H1227.861z
				 M1212.119,326.835c-1.937,2.903-4.41,5.08-7.424,6.531c-3.014,1.451-6.458,2.177-10.326,2.177
				c-7.89,0-13.434-2.828-16.634-8.485c-3.201-5.655-4.801-13.544-4.801-23.667v-2.344c0-7.069,0.726-13.265,2.177-18.587
				c1.451-5.32,3.74-9.47,6.866-12.448c3.126-2.976,7.256-4.466,12.392-4.466c3.869,0,7.33,0.856,10.382,2.568
				c3.051,1.713,5.506,4.131,7.368,7.256V326.835z"/>
			<path d="M1347.653,195.996c-15.928,0-29.696,3.443-41.307,10.326c-11.611,6.885-20.524,16.374-26.737,28.467
				c-6.216,12.095-9.322,25.956-9.322,41.585v6.587c0,16.746,3.31,31.091,9.935,43.036c6.624,11.945,15.89,21.138,27.798,27.575
				c11.907,6.439,25.676,9.657,41.306,9.657c12.281,0,23.294-1.546,33.046-4.633c9.749-3.088,17.823-6.791,24.225-11.108v-39.855
				h-26.346l-3.684,22.886c-4.019,1.638-8.336,2.959-12.95,3.963c-4.615,1.005-9.193,1.507-13.732,1.507
				c-8.858,0-16.578-2.194-23.164-6.587c-6.586-4.391-11.667-10.567-15.239-18.531c-3.572-7.964-5.358-17.266-5.358-27.91v-6.81
				c0-11.014,1.729-20.447,5.191-28.3c3.46-7.851,8.39-13.899,14.791-18.141c6.401-4.242,13.955-6.363,22.662-6.363
				c3.796,0,7.33,0.334,10.606,1.005c3.275,0.67,6.326,1.638,9.154,2.902c2.828,1.267,5.508,2.755,8.039,4.466l3.572,24.338h26.458
				v-40.525c-8.261-6.922-17.359-11.907-27.295-14.96C1369.366,197.522,1358.816,195.996,1347.653,195.996z"/>
			<path d="M1500.885,245.675c-8.597-5.209-18.998-7.815-31.203-7.815c-12.132,0-22.515,2.624-31.147,7.87
				c-8.635,5.247-15.258,12.486-19.872,21.714c-4.615,9.229-6.922,19.871-6.922,31.928v2.233c0,12.207,2.307,22.942,6.922,32.208
				c4.614,9.266,11.256,16.486,19.928,21.658c8.669,5.173,19.108,7.759,31.314,7.759c12.057,0,22.384-2.604,30.98-7.815
				c8.596-5.208,15.2-12.448,19.816-21.713c4.614-9.266,6.921-19.964,6.921-32.096v-2.233c0-12.13-2.307-22.811-6.921-32.04
				C1516.085,258.104,1509.481,250.885,1500.885,245.675z M1491.898,301.605c0,6.922-0.764,12.95-2.288,18.086
				c-1.527,5.135-3.89,9.118-7.09,11.945c-3.201,2.829-7.406,4.242-12.615,4.242c-5.358,0-9.656-1.395-12.894-4.186
				c-3.236-2.791-5.601-6.754-7.089-11.889c-1.489-5.135-2.233-11.2-2.233-18.197v-2.233c0-6.772,0.744-12.708,2.233-17.807
				c1.488-5.096,3.852-9.079,7.089-11.945c3.238-2.864,7.461-4.298,12.672-4.298c5.284,0,9.546,1.434,12.782,4.298
				c3.238,2.866,5.619,6.849,7.146,11.945c1.524,5.099,2.288,11.035,2.288,17.807V301.605z"/>
			<path d="M1643.74,186.73h-35.948H1590.6v21.322l17.192,3.461v41.529c-3.572-4.837-7.759-8.577-12.559-11.22
				c-4.801-2.641-10.476-3.963-17.025-3.963c-9.304,0-17.36,2.643-24.169,7.926c-6.81,5.285-12.057,12.654-15.741,22.104
				c-3.684,9.453-5.527,20.505-5.527,33.156v2.344c0,11.984,1.824,22.478,5.471,31.482c3.646,9.006,8.893,15.984,15.741,20.933
				c6.846,4.95,15.032,7.424,24.559,7.424c6.996,0,13.043-1.451,18.141-4.354c5.097-2.903,9.507-7.181,13.23-12.839l2.68,14.848
				h45.994v-21.211l-14.847-3.461V186.73z M1607.792,326.166c-2.009,3.052-4.596,5.377-7.759,6.977c-3.164,1.601-6.68,2.4-10.55,2.4
				c-7.591,0-12.95-2.828-16.076-8.485c-3.126-5.655-4.689-13.544-4.689-23.667v-2.344c0-7.069,0.707-13.265,2.121-18.587
				c1.413-5.32,3.665-9.47,6.754-12.448c3.088-2.976,7.125-4.466,12.113-4.466c3.869,0,7.349,0.932,10.438,2.791
				c3.088,1.861,5.638,4.504,7.647,7.927V326.166z"/>
			<path d="M1760.303,311.541v-18.979c0-11.683-1.953-21.602-5.861-29.751c-3.907-8.15-9.619-14.346-17.136-18.588
				c-7.517-4.242-16.745-6.363-27.685-6.363c-11.537-0.074-21.435,2.55-29.696,7.87c-8.261,5.322-14.588,12.671-18.979,22.048
				c-4.391,9.378-6.586,20.133-6.586,32.264v4.242c0,11.314,2.4,21.417,7.201,30.31c4.801,8.894,11.555,15.891,20.262,20.988
				c8.708,5.099,18.94,7.647,30.701,7.647c9.674,0,18.346-1.303,26.012-3.907c7.665-2.604,14.103-5.842,19.314-9.713l-8.819-21.881
				c-5.21,2.754-10.326,4.8-15.351,6.14c-5.023,1.34-10.29,2.009-15.796,2.009c-5.434,0-10.03-1.022-13.788-3.07
				c-3.759-2.046-6.68-4.837-8.763-8.373c-2.084-3.534-3.388-7.572-3.907-12.112l0.111-0.781H1760.303z M1691.311,288.097
				c0.52-4.614,1.469-8.725,2.846-12.336c1.377-3.609,3.387-6.456,6.029-8.54c2.64-2.083,6.046-3.126,10.214-3.126
				c4.092,0,7.368,0.857,9.824,2.568c2.457,1.713,4.242,4.187,5.359,7.424c1.117,3.238,1.675,7.127,1.675,11.666v2.903h-35.501
				L1691.311,288.097z"/>
		</g>
		<g>
			<path d="M551.093,516.526l-0.093-47.41l-23.519,39.509h-4.276l-23.519-39.23v47.131h-8.925v-65.073h7.623l27.145,45.737
				l26.772-45.737h7.623l0.093,65.073H551.093z"/>
			<path d="M659.298,508.438v8.088h-47.224v-65.073h45.923v8.088H621.37v19.986H654v7.901h-32.63v21.009H659.298z"/>
			<path d="M706.893,451.454h27.423c6.88,0,12.983,1.365,18.314,4.091c5.328,2.728,9.465,6.553,12.409,11.48
				c2.943,4.927,4.415,10.583,4.415,16.966c0,6.383-1.473,12.038-4.415,16.965c-2.944,4.927-7.081,8.755-12.409,11.481
				c-5.331,2.728-11.434,4.09-18.314,4.09h-27.423V451.454z M733.759,508.438c5.266,0,9.9-1.022,13.897-3.067
				c3.997-2.045,7.08-4.91,9.249-8.598c2.168-3.687,3.254-7.948,3.254-12.782c0-4.834-1.086-9.094-3.254-12.782
				c-2.17-3.687-5.252-6.554-9.249-8.599s-8.631-3.067-13.897-3.067h-17.57v48.896H733.759z"/>
			<path d="M816.214,451.454h9.296v65.073h-9.296V451.454z"/>
			<path d="M889.048,512.948c-5.238-2.882-9.342-6.847-12.318-11.899c-2.975-5.05-4.461-10.737-4.461-17.058
				c0-6.322,1.487-12.006,4.461-17.059c2.976-5.05,7.096-9.016,12.364-11.898c5.267-2.882,11.156-4.324,17.663-4.324
				c5.081,0,9.729,0.853,13.944,2.557c4.213,1.705,7.808,4.23,10.783,7.576l-6.042,5.856c-4.896-5.143-11.002-7.716-18.313-7.716
				c-4.835,0-9.203,1.085-13.108,3.254c-3.904,2.17-6.958,5.159-9.156,8.971c-2.201,3.811-3.3,8.073-3.3,12.782
				c0,4.71,1.099,8.971,3.3,12.782c2.199,3.811,5.252,6.801,9.156,8.971c3.904,2.17,8.273,3.253,13.108,3.253
				c7.25,0,13.354-2.603,18.313-7.808l6.042,5.856c-2.975,3.347-6.585,5.888-10.83,7.623c-4.245,1.736-8.91,2.603-13.99,2.603
				C900.156,517.27,894.284,515.829,889.048,512.948z"/>
			<path d="M1017.194,500.258h-34.581l-7.159,16.268h-9.575l29.468-65.073h9.203l29.561,65.073h-9.76L1017.194,500.258z
				 M1013.941,492.821l-14.037-31.886l-14.037,31.886H1013.941z"/>
			<path d="M1076.315,451.454h9.296v56.984h35.232v8.088h-44.528V451.454z"/>
			<path d="M1277.573,451.454v65.073h-9.295v-29.004h-37.371v29.004h-9.296v-65.073h9.296v27.982h37.371v-27.982H1277.573z"/>
			<path d="M1376.855,508.438v8.088h-47.224v-65.073h45.923v8.088h-36.627v19.986h32.63v7.901h-32.63v21.009H1376.855z"/>
			<path d="M1465.911,500.258h-34.581l-7.158,16.268h-9.575l29.468-65.073h9.203l29.561,65.073h-9.76L1465.911,500.258z
				 M1462.658,492.821l-14.037-31.886l-14.037,31.886H1462.658z"/>
			<path d="M1525.034,451.454h9.296v56.984h35.232v8.088h-44.528V451.454z"/>
			<path d="M1619.669,459.542h-22.311v-8.088h53.824v8.088h-22.31v56.984h-9.203V459.542z"/>
			<path d="M1749.811,451.454v65.073h-9.295v-29.004h-37.371v29.004h-9.296v-65.073h9.296v27.982h37.371v-27.982H1749.811z"/>
		</g>
	</g>
</g>
</svg>
