<?xml version="1.0" encoding="iso-8859-1"?>
<!-- Generator: Adobe Illustrator 19.0.0, SVG Export Plug-In . SVG Version: 6.00 Build 0)  -->
<svg version="1.1" id="Capa_1" xmlns="http://www.w3.org/2000/svg" xmlns:xlink="http://www.w3.org/1999/xlink" x="0px" y="0px"
	 viewBox="0 0 512 512" style="enable-background:new 0 0 512 512;" xml:space="preserve">
<g>
	<g>
		<path d="M437.02,74.98C388.667,26.629,324.381,0,256,0S123.333,26.629,74.98,74.98C26.628,123.332,0,187.619,0,256
			s26.629,132.667,74.98,181.02C123.332,485.372,187.619,512,256,512s132.667-26.629,181.02-74.98
			C485.372,388.668,512,324.381,512,256S485.371,123.333,437.02,74.98z M256,492.308C125.7,492.308,19.692,386.3,19.692,256
			S125.7,19.692,256,19.692S492.308,125.7,492.308,256S386.3,492.308,256,492.308z"/>
	</g>
</g>
<g>
	<g>
		<path d="M445.536,173.235l-0.078-0.176c-2.167-4.987-7.968-7.272-12.955-5.106c-4.987,2.167-7.273,7.966-5.106,12.955l0.134,0.306
			c1.629,3.675,5.231,5.859,9.007,5.859c1.333,0,2.687-0.272,3.984-0.847C445.495,184.023,447.739,178.207,445.536,173.235z"/>
	</g>
</g>
<g>
	<g>
		<path d="M432.737,148.625c-22.302-36.634-54.815-65.053-94.023-82.184c-4.985-2.176-10.788,0.097-12.964,5.081
			c-2.177,4.983,0.098,10.787,5.081,12.964c35.48,15.502,64.902,41.221,85.088,74.379c1.854,3.045,5.096,4.727,8.419,4.727
			c1.745,0,3.511-0.464,5.111-1.438C434.092,159.328,435.565,153.27,432.737,148.625z"/>
	</g>
</g>
<g>
	<g>
		<path d="M269.925,256l62.66-62.66c3.845-3.845,3.845-10.079,0-13.925c-3.845-3.844-10.08-3.844-13.925,0L256,242.075l-62.66-62.66
			c-3.845-3.844-10.079-3.844-13.925,0c-3.845,3.845-3.845,10.08,0,13.925l62.66,62.66l-62.66,62.66
			c-3.845,3.845-3.845,10.079,0,13.925c1.923,1.922,4.443,2.884,6.962,2.884c2.52,0,5.04-0.962,6.962-2.884L256,269.925l62.66,62.66
			c1.923,1.922,4.443,2.884,6.962,2.884s5.04-0.962,6.962-2.884c3.845-3.845,3.845-10.08,0-13.925L269.925,256z"/>
	</g>
</g>
<g>
</g>
<g>
</g>
<g>
</g>
<g>
</g>
<g>
</g>
<g>
</g>
<g>
</g>
<g>
</g>
<g>
</g>
<g>
</g>
<g>
</g>
<g>
</g>
<g>
</g>
<g>
</g>
<g>
</g>
</svg>
